<svg xmlns="http://www.w3.org/2000/svg" viewBox="0 0 192 192" width="192" height="192">
  <!-- Market Building - AoE2 Style -->

  <!-- Ground/Foundation -->
  <rect x="20" y="140" width="152" height="32" fill="#8B7355" stroke="#5C4033" stroke-width="2"/>
  <rect x="24" y="144" width="144" height="24" fill="#A08060"/>

  <!-- Main Building Structure -->
  <rect x="30" y="70" width="132" height="70" fill="#C4A574" stroke="#8B7355" stroke-width="2"/>

  <!-- Wood Beam Details -->
  <rect x="30" y="70" width="132" height="8" fill="#8B4513"/>
  <rect x="30" y="100" width="132" height="4" fill="#8B4513"/>
  <rect x="30" y="130" width="132" height="4" fill="#8B4513"/>

  <!-- Vertical Beams -->
  <rect x="30" y="70" width="6" height="70" fill="#8B4513"/>
  <rect x="93" y="70" width="6" height="70" fill="#8B4513"/>
  <rect x="156" y="70" width="6" height="70" fill="#8B4513"/>

  <!-- Awning/Roof -->
  <polygon points="10,70 96,20 182,70" fill="#B22222" stroke="#8B0000" stroke-width="2"/>
  <polygon points="20,70 96,28 172,70" fill="#CD5C5C"/>

  <!-- Roof Ridge -->
  <line x1="96" y1="20" x2="96" y2="28" stroke="#5C4033" stroke-width="4"/>

  <!-- Market Stall Counter -->
  <rect x="40" y="115" width="50" height="20" fill="#DEB887" stroke="#8B7355" stroke-width="1"/>
  <rect x="102" y="115" width="50" height="20" fill="#DEB887" stroke="#8B7355" stroke-width="1"/>

  <!-- Goods on Left Stall - Sacks/Barrels -->
  <ellipse cx="50" cy="112" rx="8" ry="6" fill="#D2B48C" stroke="#8B7355" stroke-width="1"/>
  <ellipse cx="68" cy="112" rx="8" ry="6" fill="#DAA520" stroke="#B8860B" stroke-width="1"/>
  <ellipse cx="80" cy="112" rx="6" ry="5" fill="#D2B48C" stroke="#8B7355" stroke-width="1"/>

  <!-- Goods on Right Stall - Crates/Items -->
  <rect x="108" y="105" width="12" height="10" fill="#DEB887" stroke="#8B7355" stroke-width="1"/>
  <rect x="124" y="103" width="14" height="12" fill="#CD853F" stroke="#8B4513" stroke-width="1"/>
  <rect x="142" y="107" width="10" height="8" fill="#F4A460" stroke="#D2691E" stroke-width="1"/>

  <!-- Gold Coins Stack (representing trading) -->
  <ellipse cx="55" cy="108" rx="4" ry="2" fill="#FFD700" stroke="#DAA520" stroke-width="1"/>
  <ellipse cx="55" cy="106" rx="4" ry="2" fill="#FFD700" stroke="#DAA520" stroke-width="1"/>
  <ellipse cx="55" cy="104" rx="4" ry="2" fill="#FFD700" stroke="#DAA520" stroke-width="1"/>

  <!-- Scale/Balance Symbol (trade icon) -->
  <line x1="96" y1="50" x2="96" y2="62" stroke="#5C4033" stroke-width="2"/>
  <line x1="80" y1="55" x2="112" y2="55" stroke="#5C4033" stroke-width="2"/>
  <path d="M80,55 L76,65 L84,65 Z" fill="#DAA520" stroke="#B8860B" stroke-width="1"/>
  <path d="M112,55 L108,65 L116,65 Z" fill="#DAA520" stroke="#B8860B" stroke-width="1"/>

  <!-- Hanging Sign with path-based M (text elements not supported in Godot) -->
  <rect x="140" y="45" width="30" height="20" fill="#DEB887" stroke="#8B4513" stroke-width="2" rx="2"/>
  <path d="M148,58 L148,51 L152,55 L156,51 L156,58" stroke="#5C4033" stroke-width="1.5" fill="none"/>

  <!-- Shadow -->
  <ellipse cx="96" cy="165" rx="70" ry="12" fill="#000000" fill-opacity="0.2"/>
</svg>
